<svg xmlns="http://www.w3.org/2000/svg" fill="none" viewBox="0 0 24 24"><path fill="transparent" d="M2 7a2 2 0 0 1 2-2h16a2 2 0 0 1 2 2v12a2 2 0 0 1-2 2H4a2 2 0 0 1-2-2V7Z"/><path fill="currentColor" fill-rule="evenodd" d="M20 7H4v12h16V7ZM4 5a2 2 0 0 0-2 2v12a2 2 0 0 0 2 2h16a2 2 0 0 0 2-2V7a2 2 0 0 0-2-2H4Z" clip-rule="evenodd"/><path fill="transparent" d="M12 3h12v12H12V3Z"/><path fill="transparent" d="M14 6a1 1 0 0 1 1-1h6a1 1 0 0 1 1 1v6a1 1 0 0 1-1 1h-6a1 1 0 0 1-1-1V6Z"/><path fill="currentColor" fill-rule="evenodd" d="M16 7v4h4V7h-4Zm-1-2a1 1 0 0 0-1 1v6a1 1 0 0 0 1 1h6a1 1 0 0 0 1-1V6a1 1 0 0 0-1-1h-6Z" clip-rule="evenodd"/></svg>