<svg xmlns="http://www.w3.org/2000/svg" width="89" height="24" fill="none"><rect width="24" height="24" fill="#1D4ED8" rx="6"/><path fill="#1D4ED8" d="M0 6a6 6 0 0 1 6-6h12a6 6 0 0 1 6 6v12a6 6 0 0 1-6 6H6a6 6 0 0 1-6-6V6Z"/><path fill="#fff" d="M13.885 12a1.895 1.895 0 1 1-3.79 0 1.895 1.895 0 0 1 3.79 0Z"/><path fill="#fff" fill-rule="evenodd" d="M7.59 9.363c.49.182.74.727.558 1.218A4.103 4.103 0 0 0 12 16.105a4.103 4.103 0 0 0 3.852-5.526.947.947 0 0 1 1.777-.658A5.998 5.998 0 0 1 12 18a5.998 5.998 0 0 1-5.628-8.078.947.947 0 0 1 1.218-.56ZM11.993 7.895c-.628 0-1.22.14-1.75.39a.947.947 0 1 1-.808-1.714A5.985 5.985 0 0 1 11.993 6c.913 0 1.78.204 2.557.57a.947.947 0 1 1-.808 1.715 4.09 4.09 0 0 0-1.75-.39Z" clip-rule="evenodd"/><path fill="#1D4ED8" d="M0 6a6 6 0 0 1 6-6h12a6 6 0 0 1 6 6v12a6 6 0 0 1-6 6H6a6 6 0 0 1-6-6V6Z"/><path fill="#fff" d="M13.885 12a1.895 1.895 0 1 1-3.79 0 1.895 1.895 0 0 1 3.79 0Z"/><path fill="#fff" fill-rule="evenodd" d="M7.59 9.363c.49.182.74.727.558 1.218A4.103 4.103 0 0 0 12 16.105a4.103 4.103 0 0 0 3.852-5.526.947.947 0 0 1 1.777-.658A5.998 5.998 0 0 1 12 18a5.998 5.998 0 0 1-5.628-8.078.947.947 0 0 1 1.218-.56ZM11.993 7.895c-.628 0-1.22.14-1.75.39a.947.947 0 1 1-.808-1.714A5.985 5.985 0 0 1 11.993 6c.913 0 1.78.204 2.557.57a.947.947 0 1 1-.808 1.715 4.09 4.09 0 0 0-1.75-.39Z" clip-rule="evenodd"/><path fill="#1D4ED8" d="m28.32 13.84 1.872-.384v1.056c0 .672.165 1.163.496 1.472.33.299.747.448 1.248.448.512 0 .917-.16 1.216-.48.299-.33.448-.784.448-1.36V6.656h1.92v7.888c0 .501-.085.976-.256 1.424-.17.448-.41.843-.72 1.184a3.57 3.57 0 0 1-1.12.8 3.625 3.625 0 0 1-1.472.288 4.196 4.196 0 0 1-1.504-.256 3.424 3.424 0 0 1-1.152-.752c-.31-.32-.55-.704-.72-1.152a4.196 4.196 0 0 1-.256-1.504v-.736Zm14.672-.592a1.866 1.866 0 0 0-.144-.64 1.469 1.469 0 0 0-.352-.56 1.776 1.776 0 0 0-.592-.384 2.19 2.19 0 0 0-.832-.144c-.288 0-.55.053-.784.16-.224.096-.416.23-.576.4-.16.16-.288.347-.384.56a1.61 1.61 0 0 0-.16.608h3.824Zm1.776 2.528a3.633 3.633 0 0 1-.464.96c-.203.299-.454.56-.752.784-.299.224-.64.4-1.024.528s-.81.192-1.28.192c-.533 0-1.04-.09-1.52-.272a3.846 3.846 0 0 1-1.264-.816 4.23 4.23 0 0 1-.88-1.312c-.214-.523-.32-1.115-.32-1.776 0-.619.101-1.179.304-1.68.213-.501.496-.928.848-1.28.352-.363.757-.64 1.216-.832a3.487 3.487 0 0 1 1.424-.304c.597 0 1.13.096 1.6.288.48.192.88.464 1.2.816.33.352.581.779.752 1.28.17.49.256 1.045.256 1.664 0 .15-.005.283-.016.4a.814.814 0 0 1-.032.192H39.12c.01.299.075.57.192.816.117.245.272.459.464.64s.41.325.656.432c.256.096.528.144.816.144.565 0 .997-.128 1.296-.384.31-.267.528-.592.656-.976l1.568.496Zm4.221-5.568h1.617v1.648h-1.617v3.616c0 .341.08.592.24.752.16.15.411.224.752.224.128 0 .256-.005.384-.016.128-.021.214-.037.256-.048v1.536c-.053.021-.17.053-.352.096-.18.053-.442.08-.783.08-.726 0-1.296-.203-1.712-.608-.416-.405-.624-.976-.624-1.712v-3.92h-1.44v-1.648h.4c.416 0 .72-.117.912-.352a1.32 1.32 0 0 0 .288-.864V7.824h1.68v2.384Zm7.076 2.88-1.504 1.648V18h-1.92V6.656h1.92v5.44l4.88-5.44h2.528l-4.592 5.008L62.017 18h-2.416l-3.536-4.912ZM70.67 6.656h2.032L68.414 18h-1.952L62.238 6.656h2.08l3.168 8.832 3.184-8.832ZM84.795 18V9.648L81.26 18h-1.664l-3.504-8.32V18H74.22V6.656h2.56l3.68 8.656 3.632-8.656H86.7V18h-1.904Z"/></svg>