<svg xmlns="http://www.w3.org/2000/svg" fill="none" viewBox="0 0 20 20"><g clip-path="url(#a)"><path fill="#000" d="M7.5 9.367V6.25a2.083 2.083 0 0 1 4.166 0v3.117a3.738 3.738 0 0 0 1.667-3.117 3.745 3.745 0 0 0-3.75-3.75 3.745 3.745 0 0 0-3.75 3.75c0 1.3.658 2.442 1.667 3.117Zm8.2 3.858-3.784-1.883a1.172 1.172 0 0 0-.45-.092h-.633v-5c0-.692-.558-1.25-1.25-1.25s-1.25.558-1.25 1.25v8.95c-3-.633-2.95-.625-3.058-.625a.932.932 0 0 0-.659.275l-.658.667 4.117 4.116c.225.225.541.367.883.367h5.658c.625 0 1.109-.458 1.2-1.067l.625-4.391c.009-.059.017-.117.017-.167 0-.517-.317-.967-.758-1.15Z"/></g><defs><clipPath id="a"><path fill="#fff" d="M0 0h20v20H0z"/></clipPath></defs></svg>