<svg xmlns="http://www.w3.org/2000/svg" width="24" height="24"><svg xmlns="http://www.w3.org/2000/svg" fill="none" viewBox="0 0 24 24"><path fill="#1D4ED8" d="M0 6a6 6 0 0 1 6-6h12a6 6 0 0 1 6 6v12a6 6 0 0 1-6 6H6a6 6 0 0 1-6-6V6Z"/><path fill="#fff" d="M13.885 12a1.895 1.895 0 1 1-3.79 0 1.895 1.895 0 0 1 3.79 0Z"/><path fill="#fff" fill-rule="evenodd" d="M7.59 9.363c.49.182.74.727.558 1.218A4.103 4.103 0 0 0 12 16.105a4.103 4.103 0 0 0 3.852-5.526.947.947 0 0 1 1.777-.658A5.998 5.998 0 0 1 12 18a5.998 5.998 0 0 1-5.628-8.078.947.947 0 0 1 1.218-.56Zm4.403-1.468c-.628 0-1.22.14-1.75.39a.947.947 0 1 1-.808-1.714A5.985 5.985 0 0 1 11.993 6c.913 0 1.78.204 2.557.57a.947.947 0 1 1-.808 1.715 4.09 4.09 0 0 0-1.75-.39Z" clip-rule="evenodd"/><path fill="#1D4ED8" d="M0 6a6 6 0 0 1 6-6h12a6 6 0 0 1 6 6v12a6 6 0 0 1-6 6H6a6 6 0 0 1-6-6V6Z"/><path fill="#fff" d="M13.885 12a1.895 1.895 0 1 1-3.79 0 1.895 1.895 0 0 1 3.79 0Z"/><path fill="#fff" fill-rule="evenodd" d="M7.59 9.363c.49.182.74.727.558 1.218A4.103 4.103 0 0 0 12 16.105a4.103 4.103 0 0 0 3.852-5.526.947.947 0 0 1 1.777-.658A5.998 5.998 0 0 1 12 18a5.998 5.998 0 0 1-5.628-8.078.947.947 0 0 1 1.218-.56Zm4.403-1.468c-.628 0-1.22.14-1.75.39a.947.947 0 1 1-.808-1.714A5.985 5.985 0 0 1 11.993 6c.913 0 1.78.204 2.557.57a.947.947 0 1 1-.808 1.715 4.09 4.09 0 0 0-1.75-.39Z" clip-rule="evenodd"/></svg><style>@media (prefers-color-scheme:light){:root{filter:none}}@media (prefers-color-scheme:dark){:root{filter:none}}</style></svg>